<?xml version="1.0" encoding="utf-8"?>
<!-- Generator: Adobe Illustrator 17.0.0, SVG Export Plug-In . SVG Version: 6.00 Build 0)  -->
<!DOCTYPE svg PUBLIC "-//W3C//DTD SVG 1.1//EN" "http://www.w3.org/Graphics/SVG/1.1/DTD/svg11.dtd">
<svg version="1.1" id="Capa_1" xmlns="http://www.w3.org/2000/svg" xmlns:xlink="http://www.w3.org/1999/xlink" x="0px" y="0px"
	 width="144px" height="45px" viewBox="0 0 144 45" enable-background="new 0 0 144 45" xml:space="preserve">
<g>
	<path fill="#06161A" d="M37.707,39.307v4.448h-8.245l-1.428-1.794l-0.2,1.794H14.887l-1.428-1.794l-0.2,1.794H4.084l-2.709-3.388
		L7.645,1.249h12.777l1.528,1.927l0.242-1.927h12.142h0.664h7.658l1.613,2.059V1.249h7.481h0.664h7.269l2.71,3.388l1.422,4.629
		V1.249h8.322l1.7,2.126V3.39c1.51-1.884,3.741-2.835,6.688-2.835c3.007,0,5.271,0.988,6.781,2.95l1.594,1.993
		C88.9,5.5,88.901,5.501,88.902,5.502V1.249h8.322l2.146,2.724V1.249h7.661h0.661h12.675h0.663h6.692
		c4.19,0,6.968,0.865,8.645,2.911l2.657,3.322c1.491,1.771,2.132,4.447,2.132,8.245v3.304c0,3.456-0.815,6.139-2.422,8.007
		c0.017,0.022,0.036,0.043,0.053,0.066c0.017,0.023,0.036,0.044,0.053,0.066c0.017,0.023,0.036,0.044,0.053,0.066
		c0.017,0.023,0.036,0.044,0.053,0.066c0.017,0.022,0.036,0.044,0.053,0.066c0.017,0.022,0.036,0.043,0.053,0.066
		c0.017,0.023,0.036,0.044,0.053,0.066c0.017,0.023,0.036,0.044,0.053,0.067c0.017,0.022,0.036,0.043,0.053,0.066
		c0.017,0.023,0.036,0.044,0.053,0.066c0.017,0.023,0.036,0.044,0.053,0.067c0.017,0.023,0.036,0.044,0.053,0.066
		c0.017,0.022,0.036,0.044,0.053,0.066c0.017,0.023,0.036,0.044,0.053,0.066c0.017,0.022,0.036,0.043,0.053,0.066
		c0.017,0.023,0.036,0.044,0.053,0.066c0.017,0.023,0.036,0.044,0.053,0.066c0.017,0.023,0.036,0.044,0.053,0.066
		c0.991,1.289,1.467,3.093,1.467,5.501v5.77c0,1.558,0.091,2.466,0.272,2.699l1.199,1.55h-8.673l-2.556-3.196v3.196h-7.658h-0.664
		h-12.675h-0.661h-7.661l-2.146-2.724v2.724h-8.322l-1.7-2.126v-0.004c-1.509,1.876-3.738,2.823-6.678,2.823
		c-3.007,0-5.271-0.988-6.781-2.95l-1.606-2.008v4.265h-7.933l-2.71-3.388l-1.422-4.629v8.017H54.46l-1.753-2.258
		c-1.508,1.812-3.718,2.727-6.623,2.727c-3.011,0-5.276-0.98-6.786-2.925L37.707,39.307z"/>
	<g>
		<path fill="#FFFFFF" d="M51.528,29.259c-0.006,7.492-2.917,10.607-8.17,10.602c-5.252-0.005-8.158-3.125-8.152-10.617
			l0.022-27.083l6.564,0.006l-0.022,26.618c-0.003,3.164,0.218,4.095,1.682,4.097c1.464,0.001,1.686-0.929,1.689-4.094L45.163,2.17
			l6.387,0.006L51.528,29.259z"/>
		<path fill="#FFFFFF" d="M71.272,2.195l-0.03,37.224l-6.419-0.006l-5.63-18.385l-0.015,18.379l-6.564-0.006l0.03-37.224
			l6.419,0.006l5.63,18.385l0.015-18.379L71.272,2.195z"/>
		<path fill="#FFFFFF" d="M82.127,12.718c0.003-3.202-0.218-4.144-1.682-4.145c-1.464-0.001-1.686,0.94-1.689,4.142l-0.013,16.197
			c-0.003,3.202,0.218,4.144,1.682,4.145c1.464,0.001,1.686-0.94,1.689-4.142l0.004-4.567l6.564,0.006l-0.004,5.038
			c-0.006,7.581-2.917,10.733-8.17,10.728c-5.252-0.005-8.158-3.162-8.152-10.743l0.014-17.139
			c0.006-7.581,2.917-10.733,8.17-10.728c5.252,0.005,8.159,3.163,8.152,10.743l-0.004,5.038l-6.564-0.006L82.127,12.718z"/>
		<path fill="#FFFFFF" d="M106.828,2.228l-0.03,37.224l-6.564-0.006l0.012-15.08l-3.903-0.004l-0.012,15.08l-6.564-0.006
			l0.03-37.224l6.564,0.006l-0.012,15.08l3.903,0.004l0.012-15.08L106.828,2.228z"/>
		<path fill="#FFFFFF" d="M138.027,39.482l-6.386-0.006c-0.432-0.559-0.474-1.908-0.473-3.304l0.006-7.166
			c0.002-2.699-0.862-3.165-3.368-3.167l-0.011,13.635l-6.564-0.006l0.03-37.224l6.477,0.006c7.384,0.007,9.843,2.661,9.837,10.153
			l-0.003,3.304c-0.003,4.095-1.171,6.746-3.202,8.326c2.201,0.979,3.193,2.888,3.19,6.378l-0.005,5.77
			C137.553,37.573,137.595,38.923,138.027,39.482z M127.819,9.16l-0.008,9.626c2.507,0.002,3.371-0.462,3.373-3.159l0.003-3.302
			C131.189,9.628,130.325,9.162,127.819,9.16z"/>
		<path fill="#FFFFFF" d="M2.402,39.358L8.401,2.136l11.158,0.01l-0.022,27.223L22.976,2.15l11.158,0.01l-0.03,37.228l-6.487-0.006
			L27.64,9.925l-3.311,29.453l-11.288-0.011l0.024-29.456L9.755,39.365L2.402,39.358z"/>
		<path fill="#FFFFFF" d="M114.306,9.108l-0.007,8.208l5.855,0.006l-0.006,6.872l-5.855-0.006l-0.007,8.208l5.855,0.005
			l-0.006,7.063l-12.242-0.011l0.03-37.224l12.242,0.012l-0.006,6.872L114.306,9.108z"/>
	</g>
</g>
</svg>
